# xmcd
#
# Track frame offsets:
#	150
#	12368
#	26621
#	41320
#	55415
#	70923
#	86812
#	99367
#	117516
#	131442
#
# Disc length: 1928 seconds
#
# Revision: 1
# Processed by: cddbd v1.5.2PL0 Copyright (c) Steve Scherf et al.
# Submitted via: audiograbber 1.83.01
#
DISCID=8007860a
DTITLE=Carolyn Justice - Out Of The Fast Lane
DYEAR=2008
DGENRE=Country
TTITLE0=Out Of The Fast Lane
TTITLE1=Rain In Arizona
TTITLE2=Something About You
TTITLE3=Let´s Make Some New Memories
TTITLE4=Who Do You Love
TTITLE5=Ain´t Nothing Like It
TTITLE6=Perfect Harmony
TTITLE7=Grandma´s Diary
TTITLE8=Opportunity
TTITLE9=The Sparrow
EXTD=
EXTT0=
EXTT1=
EXTT2=
EXTT3=
EXTT4=
EXTT5=
EXTT6=
EXTT7=
EXTT8=
EXTT9=
PLAYORDER=
